<?xml version="1.0" encoding="UTF-8"?>
<svg width="600" height="400" viewBox="0 0 600 400" fill="none" xmlns="http://www.w3.org/2000/svg">
  <rect width="600" height="400" fill="#1A1F2B"/>
  
  <!-- Background Grid -->
  <path d="M0 80H600" stroke="#2A3349" stroke-width="1"/>
  <path d="M0 160H600" stroke="#2A3349" stroke-width="1"/>
  <path d="M0 240H600" stroke="#2A3349" stroke-width="1"/>
  <path d="M0 320H600" stroke="#2A3349" stroke-width="1"/>
  <path d="M120 0V400" stroke="#2A3349" stroke-width="1"/>
  <path d="M240 0V400" stroke="#2A3349" stroke-width="1"/>
  <path d="M360 0V400" stroke="#2A3349" stroke-width="1"/>
  <path d="M480 0V400" stroke="#2A3349" stroke-width="1"/>
  
  <!-- Prompt/Response Diagram -->
  <rect x="100" y="100" width="400" height="60" rx="8" fill="#1E293B" stroke="#00C8FF" stroke-width="2"/>
  <text x="120" y="135" fill="white" font-family="sans-serif" font-size="16">Prompt: Explain quantum computing...</text>
  
  <path d="M300 160V180" stroke="#7B42F6" stroke-width="2" stroke-dasharray="4 4"/>
  <path d="M295 175L300 180L305 175" stroke="#7B42F6" stroke-width="2"/>
  
  <rect x="100" y="180" width="400" height="120" rx="8" fill="#1E293B" stroke="#7B42F6" stroke-width="2"/>
  <text x="120" y="210" fill="white" font-family="sans-serif" font-size="14">Response: Quantum computing leverages</text>
  <text x="120" y="230" fill="white" font-family="sans-serif" font-size="14">quantum mechanics principles like</text>
  <text x="120" y="250" fill="white" font-family="sans-serif" font-size="14">superposition and entanglement to process</text>
  <text x="120" y="270" fill="white" font-family="sans-serif" font-size="14">information differently than classical computers...</text>
  
  <!-- Decorative Prompt Engineering Elements -->
  <circle cx="520" cy="80" r="15" fill="#00C8FF" fill-opacity="0.3"/>
  <circle cx="80" cy="320" r="20" fill="#7B42F6" fill-opacity="0.3"/>
  
  <!-- Control Panel Decoration -->
  <rect x="520" y="120" width="30" height="160" rx="4" fill="#1E293B" stroke="#00C8FF" stroke-width="1"/>
  <circle cx="535" cy="140" r="6" fill="#00C8FF"/>
  <circle cx="535" cy="170" r="6" fill="#7B42F6"/>
  <circle cx="535" cy="200" r="6" fill="#00C8FF"/>
  <circle cx="535" cy="230" r="6" fill="#7B42F6"/>
  <rect x="525" cy="255" width="20" height="15" rx="2" fill="#00C8FF" fill-opacity="0.5"/>
  
  <!-- Title -->
  <text x="50" y="360" fill="#FFFFFF" font-family="sans-serif" font-size="24" font-weight="bold">GenAI Prompt Engineering Lab</text>
  
  <!-- Decorative Prompt Template Elements -->
  <rect x="50" y="130" width="30" height="60" rx="4" fill="#1E293B" stroke="#7B42F6" stroke-width="1"/>
  <text x="65" y="150" text-anchor="middle" fill="white" font-family="sans-serif" font-size="10">Few</text>
  <text x="65" y="165" text-anchor="middle" fill="white" font-family="sans-serif" font-size="10">Shot</text>
  <line x1="55" y1="175" x2="75" y2="175" stroke="white" stroke-width="1"/>
  <circle cx="65" cy="185" r="3" fill="#00C8FF"/>
  
  <rect x="50" y="200" width="30" height="60" rx="4" fill="#1E293B" stroke="#7B42F6" stroke-width="1"/>
  <text x="65" y="220" text-anchor="middle" fill="white" font-family="sans-serif" font-size="10">CoT</text>
  <line x1="55" y1="230" x2="75" y2="230" stroke="white" stroke-width="1"/>
  <circle cx="65" cy="240" r="3" fill="#00C8FF"/>
  <circle cx="58" cy="250" r="2" fill="#7B42F6"/>
  <circle cx="65" cy="250" r="2" fill="#7B42F6"/>
  <circle cx="72" cy="250" r="2" fill="#7B42F6"/>
</svg>